<svg width="130" height="40" viewBox="0 0 130 40" fill="none" xmlns="http://www.w3.org/2000/svg">
<g clip-path="url(#clip0_916_637)">
<path d="M23.237 8.727L26.617 5.274L25.894 4.536C19.974 -1.512 10.349 -1.512 4.43003 4.536C-1.23297 10.323 -1.46697 19.61 3.73003 25.706L0.328031 29.135L1.05003 29.873C6.97003 35.921 16.595 35.921 22.514 29.873C28.201 24.086 28.434 14.799 23.237 8.727ZM5.87503 6.037C10.722 1.06 18.505 0.822 23.633 5.298L21.7 7.275C17.598 3.845 11.562 4.084 7.74003 7.989C3.91803 11.894 3.68503 18.086 7.04003 22.253L5.15303 24.182C0.771031 18.919 1.00403 10.99 5.87503 6.037ZM21.046 28.373C16.176 33.35 8.41503 33.588 3.26403 29.087L5.20003 27.111C9.30103 30.54 15.337 30.301 19.16 26.396C22.982 22.491 23.215 16.3 19.859 12.132L21.746 10.204C26.151 15.49 25.918 23.42 21.047 28.373H21.046ZM66.325 11.443H70.871V15.016C73.18 10.264 80.873 9.228 82.587 14.98H82.657C84.23 11.8 88.112 10.264 91.399 11.3C94.442 12.265 95.316 15.41 95.316 18.34V30.774H90.595V19.268C90.595 17.268 90.07 15.231 87.692 15.409C85.384 15.552 83.916 17.66 83.426 19.804C83.251 20.554 83.216 21.412 83.216 22.306V30.81H78.46V19.268C78.46 17.125 77.866 15.123 75.348 15.445C73.109 15.731 71.746 17.768 71.256 19.84C71.081 20.555 71.046 21.448 71.046 22.306V30.81H66.326V11.443H66.325ZM129.236 26.703C128.013 26.703 127.313 26.167 127.313 24.058V3.87L122.627 8.658V24.773C122.627 30.312 125.844 30.991 128.467 30.991C129.236 30.991 129.936 30.883 129.936 30.883V26.667C129.936 26.667 129.586 26.703 129.236 26.703ZM117.067 14.845C115.423 12.093 112.416 10.735 109.268 11.057C107.275 11.272 105.142 12.344 104.128 14.202V11.486H99.826V40.001L104.547 35.177V30.317V28.637C106.121 30.996 109.268 31.675 111.856 31.103C118.675 29.567 120.354 20.276 117.067 14.845ZM109.128 27.208C106.226 27.208 104.617 24.493 104.442 21.813C104.302 19.561 104.897 16.917 106.96 15.738C108.674 14.773 110.912 15.024 112.276 16.453C115.283 19.561 114.199 27.208 109.128 27.208ZM61.778 11.448H57.057V30.815H61.777V11.448H61.778ZM52.825 21.739C52.091 18.38 48.978 16.736 46.111 15.521C44.222 14.7 40.481 13.699 40.586 11.019C40.69 8.339 43.733 7.66 45.831 8.018C47.021 8.232 48.174 8.697 49.188 9.375L52.336 6.16C49.503 3.372 44.572 2.693 41.006 4.016C37.158 5.445 34.501 9.84 36.284 13.914C37.578 16.915 40.935 18.166 43.663 19.381C45.761 20.31 49.468 21.953 47.789 24.991C46.6 27.171 43.558 26.921 41.599 26.206C40.516 25.812 39.431 25.205 38.487 24.49L35.34 27.706C38.102 30.565 42.614 31.744 46.39 31.029C50.692 30.243 53.804 26.241 52.825 21.739Z" fill="#28C9C9"/>
</g>
<defs>
<clipPath id="clip0_916_637">
<rect width="130" height="40" fill="white"/>
</clipPath>
</defs>
</svg>
